<?xml version="1.0" standalone="no"?>
<!DOCTYPE svg PUBLIC "-//W3C//DTD SVG 20010904//EN"
 "http://www.w3.org/TR/2001/REC-SVG-20010904/DTD/svg10.dtd">
<svg version="1.0" xmlns="http://www.w3.org/2000/svg"
 width="550.000000pt" height="550.000000pt" viewBox="0 0 550.000000 550.000000"
 preserveAspectRatio="xMidYMid meet">
<metadata>
Created by potrace 1.14, written by Peter Selinger 2001-2017
</metadata>
<g transform="translate(0.000000,550.000000) scale(0.100000,-0.100000)"
fill="#000000" stroke="none">
<path d="M4047 5264 c-4 -5 -47 -12 -74 -13 -35 -1 -99 -73 -106 -119 -7 -38
-8 -39 -55 -45 -58 -7 -144 -46 -189 -86 -46 -40 -102 -126 -114 -177 -7 -25
-17 -44 -25 -44 -17 0 -12 1 -86 -16 -99 -23 -186 -85 -194 -138 -2 -12 -7
-33 -10 -49 -7 -28 12 -87 27 -87 5 0 9 -6 9 -14 0 -8 7 -17 16 -20 8 -3 12
-11 8 -17 -4 -8 -3 -9 4 -5 7 4 12 3 12 -2 0 -5 14 -15 30 -22 17 -7 30 -18
30 -25 0 -15 49 -39 74 -36 13 2 17 -2 13 -13 -4 -10 -1 -13 9 -9 8 3 21 -2
28 -12 9 -13 15 -15 20 -6 6 9 11 9 22 0 8 -6 14 -8 14 -3 0 4 11 -3 24 -16
14 -13 32 -20 40 -17 9 4 15 3 15 -1 -3 -19 2 -32 12 -32 6 0 8 7 5 17 -6 15
-5 15 13 -1 11 -10 24 -15 29 -12 6 3 13 -1 16 -10 4 -10 2 -13 -7 -8 -6 4 -8
3 -4 -1 8 -9 23 -13 69 -17 18 -1 25 -7 23 -19 -2 -12 4 -16 23 -15 33 1 45
15 29 36 -10 13 -10 13 4 3 9 -7 20 -9 24 -5 5 4 4 1 0 -7 -6 -11 -4 -13 8 -8
9 3 19 2 22 -3 3 -5 14 -7 25 -5 12 2 26 -5 35 -18 8 -12 15 -18 15 -13 0 5
10 1 22 -10 12 -10 18 -13 14 -6 -6 10 -3 13 10 10 11 -2 18 -10 16 -17 -1 -7
2 -10 7 -7 5 4 12 2 16 -3 3 -6 15 -7 28 -2 28 10 47 4 47 -15 0 -9 5 -12 10
-9 6 4 8 11 5 16 -3 5 1 6 10 3 11 -5 13 -10 5 -18 -7 -9 -5 -12 8 -11 9 0 23
4 30 8 8 6 10 3 5 -10 -6 -15 -4 -16 9 -5 13 10 17 10 22 -3 3 -9 11 -13 17
-9 6 3 15 0 20 -7 6 -10 9 -11 9 -1 0 6 5 12 11 12 6 0 9 -7 6 -14 -4 -11 -1
-13 10 -9 12 5 14 3 8 -7 -5 -9 -4 -11 3 -6 7 4 12 2 12 -5 0 -7 7 -4 16 7 8
10 13 14 10 7 -4 -6 -2 -15 4 -18 6 -4 10 -3 9 2 -4 22 3 25 17 7 8 -10 13
-13 9 -6 -4 7 1 12 12 13 13 0 12 3 -7 10 -19 8 -22 12 -10 19 11 7 4 18 -33
54 -25 25 -53 59 -61 74 -8 16 -28 35 -44 41 -16 7 -39 25 -50 41 -12 16 -35
36 -51 46 -27 16 -28 19 -13 30 15 11 14 12 -8 7 -14 -3 -22 -3 -19 1 4 4 20
9 35 11 16 1 28 8 27 14 -2 6 2 11 7 11 6 0 10 4 10 10 0 5 -8 7 -17 3 -12 -3
-10 0 5 11 12 10 19 22 16 28 -4 7 -2 8 5 4 9 -6 9 -11 0 -22 -8 -10 -8 -14 0
-14 6 0 11 5 11 11 0 6 7 8 17 5 15 -6 15 -5 -1 13 -17 19 -17 19 6 15 12 -2
17 -2 11 2 -20 9 -15 24 8 24 11 0 17 5 14 10 -4 6 -12 7 -18 3 -7 -4 -5 1 3
12 8 10 15 21 15 24 0 3 6 5 12 5 7 -1 11 2 8 6 -3 5 -1 12 5 15 8 5 7 11 -1
21 -9 11 -8 14 7 14 16 0 16 2 4 9 -8 6 -19 7 -25 4 -5 -4 1 6 15 22 16 18 19
26 9 23 -9 -4 -16 -1 -16 8 0 7 5 11 10 7 5 -3 6 3 3 15 -4 12 2 36 15 61 24
46 29 51 22 19 -3 -17 -2 -19 5 -9 8 11 10 11 14 0 4 -12 8 -11 23 1 13 10 16
11 11 2 -6 -10 1 -12 32 -9 33 3 39 1 35 -12 -4 -12 -3 -13 5 -3 5 8 12 13 16
13 3 -1 18 -1 34 -1 21 0 24 2 12 10 -11 8 -6 9 20 7 20 -2 41 -6 46 -10 12
-7 24 1 24 15 0 5 -11 6 -25 4 -13 -3 -27 -1 -29 3 -8 13 50 7 66 -7 13 -10
19 -10 32 3 9 9 16 21 16 26 0 5 5 9 11 9 8 0 9 -4 0 -13 -11 -14 -5 -27 11
-27 5 0 7 4 3 9 -3 5 0 13 6 17 7 4 9 3 6 -3 -4 -6 4 -18 17 -26 22 -15 25
-14 45 4 22 20 30 12 9 -9 -7 -7 -8 -12 -2 -12 6 0 15 5 22 12 9 9 12 9 12 0
0 -7 5 -12 11 -12 5 0 8 4 5 8 -3 5 1 9 9 9 8 0 13 -4 12 -8 -1 -4 2 -6 8 -6
5 1 9 9 7 17 -3 13 -2 13 7 0 6 -8 15 -16 21 -16 5 -1 11 -2 13 -4 1 -1 10 -3
19 -5 11 -2 15 2 11 12 -5 13 -2 13 15 4 15 -8 23 -8 28 0 4 8 9 7 15 -2 6
-10 9 -11 9 -1 0 6 9 12 21 12 11 0 17 5 14 10 -3 6 -1 10 4 10 6 0 11 -4 11
-8 0 -5 7 -9 15 -9 10 0 12 4 5 12 -8 9 -3 12 20 9 18 -2 30 1 30 8 0 6 3 8 6
5 4 -4 1 -13 -6 -22 -11 -13 -10 -14 4 -9 9 3 16 11 16 17 0 8 3 8 11 0 13
-13 42 -6 34 8 -3 4 3 6 14 4 11 -2 22 3 25 11 3 8 13 14 21 14 9 0 14 4 11 8
-2 4 5 9 17 9 17 2 18 0 7 -7 -11 -7 -10 -9 7 -7 12 0 19 5 17 9 -8 13 41 9
55 -4 11 -11 11 -9 1 12 -12 22 -11 23 2 13 19 -17 31 -4 15 15 -10 13 -9 14
2 7 11 -6 13 -3 9 12 -5 17 -1 20 24 17 16 -2 27 0 24 5 -3 5 1 12 10 15 8 3
12 11 8 17 -5 8 -3 9 5 4 9 -5 10 -10 2 -18 -6 -6 -11 -16 -11 -21 0 -6 5 -3
11 7 6 9 14 15 19 12 5 -3 12 0 16 6 4 8 3 9 -4 5 -7 -4 -12 -2 -12 3 0 6 4
11 8 11 5 0 9 7 9 15 0 11 -4 12 -14 3 -7 -6 -16 -8 -20 -4 -3 3 -1 6 5 6 7 0
12 7 12 15 0 19 -41 35 -105 42 -27 2 -75 11 -105 18 -30 8 -68 16 -85 19 -16
3 -39 8 -50 10 -11 2 -52 9 -92 16 -112 18 -140 27 -147 45 -4 11 -31 17 -143
30 -13 2 -42 7 -65 11 -24 4 -50 8 -58 9 -8 1 -35 5 -60 9 -55 9 -82 13 -140
21 -25 3 -63 8 -85 12 -41 6 -49 7 -145 17 -30 3 -67 8 -82 10 -15 2 -29 2
-31 0z m1130 -430 c-3 -3 -12 -4 -19 -1 -8 3 -5 6 6 6 11 1 17 -2 13 -5z m-49
-39 c-3 -3 -9 2 -12 12 -6 14 -5 15 5 6 7 -7 10 -15 7 -18z m-424 -21 c3 -8 2
-12 -4 -9 -6 3 -10 10 -10 16 0 14 7 11 14 -7z m226 6 c0 -5 -5 -10 -11 -10
-5 0 -7 5 -4 10 3 6 8 10 11 10 2 0 4 -4 4 -10z m-674 -38 c-18 -16 -18 -16
-6 6 6 13 14 21 18 18 3 -4 -2 -14 -12 -24z m194 24 c0 -3 -4 -8 -10 -11 -5
-3 -10 -1 -10 4 0 6 5 11 10 11 6 0 10 -2 10 -4z m-329 -373 c12 -16 12 -17
-2 -6 -9 7 -20 9 -24 5 -5 -4 -5 -1 -1 6 9 16 11 15 27 -5z m-731 -33 c0 -5
-2 -10 -4 -10 -3 0 -8 5 -11 10 -3 6 -1 10 4 10 6 0 11 -4 11 -10z m400 -164
c0 -2 -7 -7 -16 -10 -8 -3 -12 -2 -9 4 6 10 25 14 25 6z m240 -67 c0 -6 -4 -7
-10 -4 -5 3 -10 11 -10 16 0 6 5 7 10 4 6 -3 10 -11 10 -16z m268 -84 c-3 -3
-9 2 -12 12 -6 14 -5 15 5 6 7 -7 10 -15 7 -18z"/>
<path d="M1683 4902 c-4 -8 2 -21 11 -28 10 -7 15 -17 12 -22 -3 -6 7 -17 22
-26 l27 -17 -24 20 c-25 23 -17 29 11 8 25 -19 33 -69 43 -257 3 -58 8 -134
11 -170 2 -36 7 -220 10 -410 l7 -345 -69 -46 c-144 -97 -267 -164 -341 -188
-27 -8 -33 -7 -33 5 0 8 5 12 10 9 6 -3 10 -1 10 4 0 6 -5 11 -11 11 -8 0 -7
6 2 17 10 11 10 14 2 9 -7 -4 -13 -3 -13 1 0 5 6 15 13 22 10 11 10 13 0 7
-16 -9 -16 -1 -1 27 10 20 10 21 -5 8 -21 -17 -22 -8 -1 13 12 13 13 16 1 16
-7 0 -14 6 -14 14 0 8 6 12 15 8 11 -4 10 2 -4 24 -11 15 -14 25 -8 21 8 -5
11 6 9 36 -2 23 2 49 8 57 10 13 10 13 -4 3 -13 -11 -15 -6 -14 36 1 26 5 53
9 59 4 7 2 10 -7 6 -10 -3 -13 3 -12 23 1 16 4 34 8 40 4 6 1 14 -5 16 -10 4
-10 6 0 6 6 1 12 6 12 12 0 5 -4 8 -8 5 -12 -7 -11 26 1 42 6 8 5 12 -4 12
-11 0 -11 2 1 10 13 9 13 10 0 10 -13 0 -13 1 0 10 10 6 11 10 3 10 -7 0 -13
5 -13 11 0 5 5 7 10 4 13 -8 8 17 -5 28 -6 6 -6 10 3 14 6 2 12 9 12 14 0 6
-4 8 -9 4 -13 -8 -10 38 4 47 6 5 6 8 -2 8 -7 0 -13 5 -13 11 0 5 6 7 13 3 6
-4 5 1 -4 12 -17 20 -15 54 4 54 6 0 3 6 -8 13 -14 11 -15 16 -5 22 9 6 11 4
5 -5 -5 -8 -4 -11 3 -6 6 4 9 13 6 21 -4 8 -10 13 -14 10 -14 -9 -5 30 10 43
13 12 13 13 -2 9 -17 -6 -19 16 -3 30 4 4 5 2 0 -6 -6 -10 -4 -12 4 -7 9 6 8
13 -6 29 -15 17 -15 19 -2 15 11 -4 15 0 14 13 -1 10 -5 22 -10 26 -4 5 -5 3
-1 -4 3 -6 2 -14 -3 -17 -14 -9 -7 19 9 40 13 16 13 17 -2 11 -10 -3 -18 -4
-18 0 0 3 8 12 18 20 14 12 14 14 1 10 -9 -3 -16 1 -16 9 0 7 4 11 8 9 12 -8
19 39 7 50 -8 7 -9 6 -3 -4 6 -10 4 -12 -4 -7 -12 8 -1 30 24 48 6 4 6 8 1 8
-5 0 -3 6 3 14 6 8 10 19 9 26 -2 7 4 15 12 17 13 4 13 3 0 -6 -8 -6 -10 -11
-4 -11 5 0 19 7 30 15 19 15 19 15 -1 9 -18 -5 -18 -4 -4 8 18 15 14 42 -4 32
-9 -5 -9 -4 0 6 6 7 9 18 6 26 -4 10 -74 12 -371 8 -202 -3 -371 -9 -376 -14
-9 -9 16 -40 33 -40 5 0 13 -4 16 -10 3 -6 -2 -8 -12 -5 -10 3 -4 -1 12 -9 17
-8 35 -11 40 -8 6 3 3 -3 -5 -13 -8 -10 -10 -16 -3 -12 10 6 51 -26 54 -42 3
-18 7 -108 14 -281 4 -107 8 -231 10 -275 3 -73 16 -505 19 -650 1 -50 -2 -60
-17 -63 -32 -6 -341 154 -362 188 -7 12 35 30 50 22 6 -3 4 1 -2 9 -7 7 -13
18 -13 23 0 6 5 4 11 -4 8 -11 12 -12 16 -2 2 6 9 12 14 12 6 0 7 -6 4 -12 -4
-7 1 -4 9 6 9 11 16 17 16 13 0 -4 11 0 25 9 28 19 25 35 -7 29 -11 -3 -17 -1
-14 3 4 4 11 7 14 7 17 1 62 39 62 52 0 12 -10 14 -57 8 -109 -12 -283 -59
-283 -76 0 -11 39 -91 60 -124 11 -16 23 -37 27 -45 4 -8 15 -24 25 -34 9 -10
15 -24 11 -29 -3 -6 -1 -7 5 -3 13 8 35 -28 24 -39 -4 -5 -1 -5 5 -1 8 4 23
-3 37 -17 14 -14 27 -22 30 -19 3 3 6 -1 6 -8 0 -18 33 -40 45 -30 6 5 17 4
25 -2 12 -8 11 -9 -4 -4 -16 6 -17 4 -6 -9 10 -12 16 -13 28 -3 13 10 14 10 8
1 -5 -9 1 -13 19 -13 20 0 26 -4 22 -15 -4 -8 -1 -17 5 -21 7 -4 8 -3 4 4 -4
7 -1 12 8 12 23 0 46 -11 46 -23 0 -7 -4 -7 -12 1 -7 7 -16 12 -22 12 -5 0 -1
-6 10 -14 13 -10 23 -11 31 -4 9 7 13 7 13 -1 0 -6 5 -11 11 -11 5 0 7 6 3 13
-5 8 -2 8 9 -2 9 -7 17 -19 17 -26 0 -8 10 -11 28 -8 19 3 23 2 13 -5 -9 -7
-10 -11 -1 -14 8 -2 11 -71 10 -258 -1 -315 -6 -411 -24 -455 -20 -47 -80
-102 -145 -134 -54 -26 -73 -54 -44 -65 8 -3 20 -3 25 1 7 4 8 1 2 -8 -16 -27
-14 -40 6 -29 24 13 33 13 24 -1 -3 -6 5 -3 20 6 24 16 26 16 20 1 -5 -14 -3
-15 21 -6 33 13 38 13 30 0 -9 -15 4 -12 20 4 8 7 11 17 7 21 -4 5 -2 5 5 1 7
-4 10 -12 7 -19 -2 -7 4 -13 16 -14 11 -1 20 3 20 8 0 6 -4 8 -8 5 -5 -3 -9 1
-9 8 0 11 4 12 18 3 10 -6 15 -15 12 -21 -4 -5 -1 -6 6 -2 7 5 10 15 7 23 -3
8 -1 11 4 8 6 -3 10 -13 10 -21 0 -8 5 -14 11 -14 5 0 7 5 3 12 -5 7 -3 8 7 3
17 -11 50 -12 67 -1 6 4 12 3 12 -3 0 -6 15 -10 33 -9 17 0 39 -1 47 -3 10 -3
14 2 12 16 -2 15 2 13 19 -10 11 -16 19 -22 15 -12 -3 9 -2 17 2 18 4 0 15 2
25 4 12 2 17 -1 14 -10 -6 -14 24 -15 35 0 9 12 57 15 64 3 3 -4 9 -6 14 -3 5
3 12 0 16 -6 5 -8 3 -9 -6 -4 -9 6 -11 4 -6 -4 6 -9 13 -8 27 5 19 17 20 17
13 -2 -4 -10 -4 -16 1 -12 4 4 17 3 28 -3 15 -9 18 -8 12 2 -6 9 -3 11 8 6 9
-3 23 0 31 8 12 13 15 12 20 -1 3 -8 2 -12 -3 -9 -5 3 -12 1 -15 -3 -8 -14 78
-2 86 12 5 7 8 7 8 0 0 -5 -6 -16 -12 -23 -11 -11 -10 -13 3 -8 9 3 21 1 27
-5 7 -7 10 -6 8 3 -7 35 -31 68 -65 87 -20 11 -47 33 -61 48 -14 15 -19 24
-13 20 9 -5 11 -2 7 8 -3 9 -10 13 -15 10 -5 -3 -9 2 -9 10 0 9 8 16 18 16 16
1 16 1 0 11 -21 12 -24 35 -5 42 8 4 8 6 0 6 -6 1 -9 10 -6 21 3 11 10 17 17
13 6 -4 4 1 -4 12 -16 20 -15 55 4 68 7 6 4 7 -6 3 -12 -3 -18 0 -18 10 0 8 4
13 9 9 6 -3 8 4 5 17 -3 13 -5 40 -5 61 0 20 -4 35 -8 33 -4 -3 -8 1 -8 8 0 8
7 12 16 9 11 -3 10 0 -3 11 -17 14 -16 20 5 18 9 -1 4 36 -6 45 -4 5 -5 2 -1
-4 4 -7 2 -13 -3 -13 -14 0 -14 13 1 28 17 17 19 42 3 36 -14 -6 -15 19 -2 32
10 10 9 26 -1 20 -5 -3 -9 1 -9 9 0 8 4 12 9 9 4 -3 8 2 8 11 0 10 -5 13 -12
9 -9 -5 -9 -2 1 9 9 12 10 17 2 17 -7 0 -9 5 -6 10 4 6 12 7 19 3 7 -4 3 0 -7
10 -18 16 -15 22 8 17 6 -1 5 3 -1 10 -6 6 -9 29 -7 52 4 30 2 39 -7 33 -9 -6
-9 -3 -1 14 7 11 8 21 3 21 -11 0 -9 30 3 50 5 9 4 15 -3 18 -7 2 -12 8 -12
13 0 6 4 8 9 5 5 -3 12 1 15 10 3 8 10 12 16 9 5 -3 7 0 5 7 -4 9 3 14 17 15
18 2 19 0 8 -7 -11 -7 -10 -9 7 -7 12 0 20 4 17 9 -3 4 11 5 31 4 19 -2 33 0
30 4 -3 5 -15 7 -27 5 -11 -3 -17 -1 -14 3 4 4 11 7 14 7 4 0 13 4 21 9 9 6
12 5 8 -1 -4 -7 7 -10 31 -8 48 3 74 14 65 28 -4 6 0 8 10 4 10 -3 17 -2 17 3
0 6 -5 10 -12 10 -6 0 -9 3 -6 6 4 3 17 0 30 -7 21 -11 22 -11 9 5 -12 15 -12
17 0 14 8 -2 17 -6 20 -11 3 -4 14 2 26 12 14 13 24 16 31 9 6 -6 12 -6 17 3
5 8 4 10 -3 5 -16 -10 -15 2 2 19 10 10 16 11 24 3 9 -9 10 -5 7 12 -3 18 -2
21 7 12 7 -7 14 -20 16 -29 2 -10 5 -182 7 -383 6 -628 -18 -746 -172 -845
-49 -31 -47 -28 -30 -57 24 -44 66 -71 88 -57 21 13 41 11 33 -4 -6 -9 -5 -9
8 0 8 7 19 9 23 5 5 -4 5 -1 1 6 -4 7 -11 10 -16 7 -5 -3 -11 -1 -15 4 -3 6 4
8 17 4 13 -3 37 -7 54 -8 17 -1 37 -6 44 -10 8 -5 11 -4 7 1 -3 5 3 10 13 10
11 0 16 -5 12 -11 -4 -6 1 -2 11 8 10 11 17 14 17 7 0 -8 9 -11 25 -8 14 3 28
2 31 -3 2 -4 12 -5 21 -2 12 5 14 3 8 -7 -5 -9 -4 -11 4 -6 9 6 9 11 0 22 -10
12 -6 12 24 -1 19 -8 37 -11 41 -8 3 4 6 0 6 -8 0 -12 2 -12 9 0 8 13 12 13
27 0 10 -8 15 -9 11 -3 -11 19 21 25 38 8 8 -9 15 -11 15 -5 0 6 5 11 11 11 5
0 8 -4 5 -8 -2 -4 7 -9 20 -10 15 -1 22 2 19 8 -3 6 -2 10 4 10 5 0 11 -6 13
-12 3 -8 25 -13 61 -12 31 0 57 -4 57 -8 0 -4 5 -8 11 -8 5 0 8 4 5 8 -2 4 4
8 14 9 10 1 21 -5 24 -14 6 -14 8 -14 25 1 9 9 21 13 25 9 4 -4 4 1 0 10 -6
17 -7 17 -28 0 -18 -15 -19 -16 -8 -1 20 25 12 42 -37 79 -24 19 -54 53 -68
77 -13 24 -20 41 -15 38 5 -3 9 1 9 9 0 8 -3 12 -6 10 -4 -2 -11 12 -17 31 -9
28 -9 34 2 30 8 -3 11 0 7 9 -3 8 -9 13 -13 10 -4 -3 -8 12 -8 33 0 20 -3 54
-5 75 -4 32 -2 37 12 33 13 -5 13 -4 -2 8 -16 12 -16 14 -1 20 15 6 15 8 0 31
-15 23 -15 25 1 25 15 0 15 2 -3 16 -10 8 -13 13 -6 9 6 -3 12 -1 12 4 0 6 -3
11 -8 11 -11 0 -9 64 3 72 6 5 4 8 -5 8 -13 0 -13 1 0 10 13 9 13 10 0 11 -10
0 -8 3 5 9 16 7 17 9 3 9 -11 1 -15 7 -11 21 3 11 10 17 16 13 6 -3 7 -1 3 5
-4 6 -14 8 -24 5 -11 -4 -8 2 8 17 15 14 18 21 8 17 -19 -6 -33 29 -16 40 6 3
8 1 4 -5 -3 -6 -2 -13 3 -16 5 -3 7 9 4 27 -2 17 -3 39 -3 47 1 8 1 34 1 57 1
24 5 40 10 37 15 -9 10 3 -8 17 -14 12 -16 12 -8 0 6 -10 4 -12 -5 -6 -11 7
-10 10 1 19 8 7 13 24 11 45 -2 19 2 37 8 41 8 5 7 9 -5 13 -10 5 -14 3 -9 -5
5 -7 3 -8 -6 -3 -10 6 -10 11 4 20 14 11 15 14 1 25 -17 14 -20 30 -4 30 5 0
7 -4 4 -10 -3 -5 -2 -10 3 -10 6 0 8 17 5 40 -4 29 -2 40 8 40 8 0 6 6 -7 16
-10 8 -14 13 -9 10 6 -2 11 4 11 15 0 10 -6 19 -14 19 -7 0 -10 5 -7 10 4 6
10 8 13 6 10 -6 7 42 -3 51 -4 5 -5 2 0 -6 6 -10 4 -12 -5 -6 -10 6 -9 11 4
21 10 7 13 15 7 18 -6 4 -7 14 -4 23 5 12 3 14 -8 9 -9 -5 -8 -3 2 6 16 13 23
51 7 42 -11 -7 -10 3 2 26 8 15 6 21 -7 29 -17 10 -17 10 1 11 14 0 16 3 8 13
-7 8 -7 18 -2 27 5 8 4 22 -3 34 -16 31 -17 58 -1 45 10 -8 11 -5 7 13 -3 13
-11 29 -17 37 -7 9 1 7 19 -5 29 -18 30 -18 15 0 -14 18 -14 19 7 7 20 -10 22
-9 16 6 -6 15 -4 16 8 6 12 -10 20 -9 36 2 11 8 23 11 27 8 3 -3 6 -1 6 7 0
10 3 10 15 0 13 -11 14 -10 9 6 -4 10 -4 16 1 12 4 -4 14 -3 22 4 11 9 12 7 7
-8 -4 -13 3 -9 21 11 14 17 23 23 19 15 -5 -8 -9 -22 -11 -30 -1 -12 1 -11 11
2 7 10 16 15 19 11 4 -3 7 0 7 8 1 10 4 9 14 -4 13 -17 14 -17 20 0 13 32 24
-3 41 -122 4 -22 11 -69 16 -105 6 -36 12 -81 15 -100 2 -19 7 -46 9 -60 3
-14 12 -72 20 -130 9 -58 18 -112 20 -120 2 -8 6 -40 10 -70 3 -30 7 -66 10
-79 2 -13 7 -51 10 -85 3 -33 8 -76 10 -93 3 -18 2 -33 0 -33 -3 0 -33 14 -67
31 -81 41 -136 60 -143 50 -4 -8 1 -43 20 -141 3 -14 9 -50 15 -80 6 -30 12
-66 15 -80 9 -46 54 -305 60 -345 5 -36 11 -75 21 -130 2 -11 6 -40 9 -65 3
-25 9 -71 14 -102 4 -34 4 -58 -1 -58 -5 0 -31 21 -58 46 -49 47 -90 79 -90
71 0 -2 5 -29 11 -58 11 -57 12 -60 34 -179 8 -41 30 -156 49 -255 90 -461
206 -1088 206 -1109 0 -5 3 -6 7 -3 3 4 13 1 21 -6 13 -10 14 -9 3 10 -9 18
-9 22 2 18 8 -4 13 3 14 16 2 18 0 19 -15 7 -15 -11 -15 -11 -5 3 7 9 9 20 5
24 -4 5 0 6 8 3 11 -4 15 2 15 22 0 16 -3 26 -6 24 -14 -8 -3 32 11 44 13 12
13 13 -4 8 -15 -5 -17 -4 -8 7 7 8 8 18 4 22 -4 5 2 5 13 2 19 -7 19 -6 3 7
-20 15 -25 31 -6 20 8 -5 9 -2 5 9 -3 10 -2 17 3 17 6 0 10 5 10 11 0 5 -4 8
-9 4 -5 -3 -12 -1 -16 5 -3 5 2 10 12 10 17 1 17 2 -1 15 -19 14 -19 15 -2 15
16 0 17 2 5 17 -12 14 -12 16 0 8 11 -6 13 -4 8 9 -4 10 -7 20 -7 22 0 3 -5 2
-12 -2 -7 -4 -8 -3 -4 5 4 6 11 9 16 6 5 -3 11 -1 15 5 3 5 2 10 -3 10 -15 0
-23 28 -10 36 6 4 8 3 4 -4 -3 -6 -1 -14 6 -18 7 -4 10 -4 6 1 -4 4 -2 15 5
23 7 10 8 13 1 9 -15 -9 -26 44 -13 58 7 7 8 4 4 -6 -4 -10 -2 -19 3 -23 5 -3
7 5 6 17 -1 12 -3 30 -3 40 -1 11 -6 15 -13 11 -7 -5 -8 -3 -4 5 5 7 15 10 23
6 13 -4 14 -3 4 9 -10 12 -10 20 0 38 10 20 10 21 -2 11 -11 -9 -14 -7 -14 12
0 15 4 20 10 15 7 -6 11 -2 11 11 0 13 -5 18 -15 14 -10 -4 -11 -2 -3 7 6 7
10 16 9 20 -1 3 2 10 7 15 5 4 6 3 2 -4 -3 -6 -2 -14 3 -17 10 -7 9 20 -2 30
-3 4 -2 15 3 25 7 12 6 20 -2 25 -6 4 -8 3 -4 -4 3 -6 2 -13 -3 -16 -12 -8 -8
23 5 32 11 9 15 74 4 67 -5 -3 -12 0 -16 6 -4 8 -3 9 4 5 8 -5 11 3 8 24 -2
17 0 33 5 35 4 3 6 14 4 25 -2 11 -1 20 3 20 11 0 112 -169 112 -187 0 -8 3
-12 8 -10 8 4 43 -29 36 -35 -2 -3 2 -5 9 -5 7 0 13 8 13 18 0 10 -4 15 -8 13
-4 -3 -8 0 -8 5 0 6 8 11 18 12 11 1 9 4 -8 9 -21 7 -22 8 -5 9 17 1 17 3 5
11 -9 6 -11 10 -3 10 7 0 10 6 7 14 -3 8 0 17 5 21 14 8 4 25 -12 21 -7 -1 -9
-1 -4 1 4 3 4 10 1 15 -4 6 -2 8 4 4 6 -3 14 -1 18 5 4 7 3 9 -4 5 -6 -3 -13
-2 -17 4 -3 5 0 10 7 10 9 0 9 3 -2 10 -12 8 -12 10 5 10 18 1 17 2 -5 16 -14
8 -17 13 -7 10 14 -4 16 -2 9 12 -5 9 -7 30 -5 46 2 16 -1 32 -7 36 -8 5 -6 9
5 13 10 5 14 3 9 -5 -4 -7 -3 -8 5 -4 9 6 9 11 0 22 -12 15 -19 155 -7 148 4
-2 9 0 13 6 3 5 -2 10 -11 10 -17 0 -16 1 1 13 14 11 15 16 5 22 -9 6 -11 4
-5 -5 6 -9 4 -11 -4 -6 -9 6 -8 13 6 29 10 11 12 17 6 13 -7 -4 -13 -4 -14 1
0 4 -2 18 -3 31 -2 13 2 21 8 19 7 -3 11 12 11 39 0 34 -3 43 -14 39 -11 -4
-11 -2 -3 8 7 8 9 17 5 21 -4 3 -7 15 -8 26 -1 14 2 17 10 10 8 -7 12 -5 12 5
0 8 -4 15 -9 15 -13 0 -9 28 5 33 10 4 10 6 0 6 -7 1 -13 6 -13 12 0 5 6 7 13
3 10 -6 10 -4 0 7 -15 16 -17 33 -3 24 11 -7 9 23 -3 43 -5 7 -4 12 2 12 6 0
11 5 11 11 0 5 -4 7 -10 4 -5 -3 -10 -2 -10 4 0 5 5 13 10 16 6 3 10 12 10 18
0 7 -4 6 -10 -3 -6 -9 -10 -10 -10 -3 0 6 4 14 9 17 9 6 131 -196 131 -215 0
-5 9 -9 20 -9 11 0 20 -5 20 -11 0 -5 -6 -7 -12 -3 -9 5 -9 2 1 -9 14 -18 22
-22 20 -9 -4 21 2 32 14 27 6 -4 3 1 -7 9 -18 15 -15 20 9 17 6 -1 2 5 -9 13
-10 8 -15 20 -11 26 4 7 1 16 -6 21 -11 7 -11 9 -1 9 10 0 10 5 2 20 -9 16 -8
19 6 13 14 -5 14 -2 -2 23 -11 15 -14 25 -7 21 14 -9 6 82 -8 100 -7 7 -6 14
2 19 8 5 9 3 4 -6 -6 -9 -4 -11 5 -5 10 6 9 11 -4 21 -13 9 -14 13 -4 17 10 4
10 6 1 6 -7 1 -13 6 -13 12 0 5 6 7 13 3 9 -6 9 -5 0 7 -10 12 -10 18 0 29 8
8 8 11 1 7 -7 -4 -14 0 -18 8 -3 9 0 15 10 15 8 0 12 5 9 10 -4 6 -10 8 -15 5
-14 -9 -4 26 11 37 11 8 11 9 -3 4 -21 -6 -22 -2 -7 26 6 12 7 18 1 14 -5 -3
-13 1 -16 10 -5 12 -2 15 9 10 11 -4 14 -2 8 7 -4 6 -8 15 -9 20 -1 4 -3 8 -4
10 -1 1 -3 17 -5 35 -2 30 -1 31 12 15 13 -17 13 -16 4 3 -6 12 -7 25 -3 29 4
5 -2 5 -12 1 -20 -7 -20 -7 0 15 10 12 14 19 8 16 -7 -4 -15 0 -18 9 -3 8 -2
12 4 9 6 -3 10 -2 10 4 0 5 -4 12 -9 15 -5 3 -7 15 -4 26 3 11 9 17 14 14 5
-3 9 -3 9 1 0 3 -10 10 -22 15 -17 6 -18 9 -6 9 12 1 15 7 11 24 -2 12 -5 30
-5 40 1 11 -4 15 -11 11 -8 -5 -8 -2 1 7 9 9 17 11 28 4 9 -6 14 -12 13 -15
-1 -3 12 -20 29 -39 17 -19 30 -37 27 -39 -2 -2 7 -16 21 -30 13 -15 24 -30
24 -34 0 -4 11 -19 25 -34 14 -15 25 -31 25 -36 0 -5 7 -16 15 -25 8 -8 13
-18 11 -22 -3 -4 8 -6 25 -5 16 1 26 -2 23 -7 -3 -5 -9 -7 -14 -4 -5 3 -11 1
-15 -4 -3 -6 3 -8 15 -6 11 2 20 -2 20 -8 0 -7 5 -4 11 6 7 12 15 15 27 8 21
-11 57 2 71 26 14 23 14 8 1 -20 -7 -14 1 -9 21 13 21 24 27 28 19 12 -6 -13
-9 -26 -6 -30 3 -3 6 0 6 7 0 6 8 11 18 9 11 -2 17 3 16 14 -1 10 2 15 8 12 5
-3 17 0 26 7 12 10 11 7 -3 -11 -14 -18 -15 -21 -3 -11 9 7 23 9 29 5 8 -5 9
-3 4 6 -6 10 -4 12 9 7 14 -6 17 -3 12 9 -5 14 -4 15 9 4 12 -10 15 -10 15 0
0 9 3 10 13 1 11 -8 18 -6 31 8 10 11 15 24 12 30 -4 5 -2 13 4 16 6 4 10 3 9
-2 -3 -19 2 -33 12 -33 6 0 8 7 5 16 -4 10 -2 13 6 8 8 -5 9 -2 5 9 -3 9 -1
19 5 23 6 4 8 3 5 -2 -3 -6 -2 -16 4 -24 6 -10 9 -11 9 -2 0 6 7 12 16 12 9 0
12 5 8 13 -5 7 0 6 11 -3 17 -14 18 -13 12 3 -4 10 -3 16 2 12 5 -3 12 -1 16
5 3 5 1 10 -6 10 -7 0 -9 3 -6 6 4 4 13 2 20 -4 17 -14 28 -6 20 16 -4 10 -2
13 5 8 7 -4 16 3 23 18 7 14 16 23 22 19 6 -3 7 -1 3 6 -4 6 -11 9 -15 7 -3
-3 -7 4 -7 14 0 10 4 16 8 14 4 -3 9 -2 9 3 8 58 7 78 -3 86 -9 6 -6 7 9 4 21
-5 21 -4 6 19 -14 22 -14 24 3 24 17 0 17 1 -2 16 -10 8 -14 13 -7 10 6 -4 14
-2 18 4 3 5 1 10 -6 10 -10 0 -10 3 -2 11 6 6 9 18 6 27 -4 10 -2 13 5 8 15
-9 3 26 -12 36 -7 5 -4 8 7 8 14 0 16 4 7 19 -7 14 -6 21 3 24 9 4 9 6 0 6
-10 1 -10 7 -1 26 6 13 15 22 21 18 6 -3 7 -1 3 5 -4 7 -15 12 -24 12 -16 1
-16 1 1 11 9 5 17 15 17 22 0 8 -4 6 -11 -3 -9 -12 -10 -12 -5 3 3 10 6 21 6
23 0 3 6 2 13 -2 10 -6 10 -4 0 7 -14 14 -18 33 -5 25 4 -2 7 7 7 22 -1 15 3
33 8 40 6 8 5 12 -2 12 -6 0 -11 -5 -11 -11 0 -5 -5 -7 -11 -4 -6 5 -4 12 7
20 10 7 15 19 11 27 -3 9 0 21 6 28 9 10 9 11 0 6 -7 -4 -13 -2 -13 3 0 6 4
11 10 11 10 0 9 27 -2 45 -8 13 16 47 27 37 5 -4 5 -2 1 5 -4 7 -14 10 -24 7
-13 -5 -14 -4 -4 4 13 9 15 91 2 102 -3 3 -13 21 -23 40 -20 39 -40 62 -231
264 -227 241 -261 274 -287 271 -13 -2 -91 -24 -173 -49 -83 -26 -155 -45
-162 -42 -7 3 -15 0 -17 -7 -3 -7 -4 -2 -4 10 1 12 5 19 9 17 12 -8 9 11 -4
24 -9 9 -8 12 6 12 9 0 14 5 11 10 -4 6 -12 8 -18 4 -7 -3 -5 0 4 8 9 7 14 19
11 27 -3 8 0 11 7 7 7 -4 9 -2 5 8 -3 8 -12 17 -20 20 -7 3 -11 12 -8 20 3 8
0 17 -6 21 -7 4 -148 9 -314 12 -165 2 -312 4 -326 5 -50 1 -58 -2 -54 -19 3
-10 13 -71 22 -135 16 -106 17 -118 3 -119 -9 0 -29 -3 -46 -5 -16 -2 -64 -9
-105 -14 -41 -6 -88 -13 -104 -16 -25 -4 -27 -3 -17 10 9 11 9 15 -1 19 -10 4
-9 6 1 6 11 1 10 5 -5 16 -19 15 -19 15 1 8 16 -6 18 -4 8 8 -15 19 -13 31 6
47 14 11 14 11 -1 6 -10 -3 -18 -1 -18 5 0 6 6 11 13 11 9 0 9 2 -1 9 -16 9
-15 20 1 39 8 10 7 16 -4 24 -11 7 -11 11 -1 15 6 2 12 9 12 14 0 6 -4 8 -9 5
-5 -3 -11 3 -14 13 -3 12 0 18 7 15 7 -3 12 5 13 18 2 18 0 20 -7 8 -8 -13
-10 -12 -10 3 0 9 6 17 13 17 9 0 8 3 -2 9 -7 5 -10 14 -7 20 4 6 12 8 18 5 7
-4 8 -2 4 5 -4 6 -11 9 -16 6 -4 -3 -10 4 -13 14 -3 13 0 18 8 15 13 -5 15 62
2 83 -4 6 -2 15 3 18 8 5 6 13 -5 25 -13 15 -13 19 -1 29 14 12 15 59 1 82 -6
9 -4 11 8 6 10 -3 17 -4 17 -1 0 2 -10 9 -22 14 -20 8 -21 9 -4 9 19 1 19 1 1
14 -14 11 -15 16 -5 22 9 6 11 4 5 -5 -6 -9 -4 -11 4 -5 9 5 10 10 2 18 -18
18 -12 31 7 16 15 -12 16 -12 6 1 -6 8 -10 23 -9 33 2 9 0 17 -5 17 -10 0 -7
27 5 37 4 4 5 2 0 -6 -6 -10 -4 -12 4 -7 9 6 9 11 0 23 -18 20 -19 55 -3 49 7
-3 16 -1 19 4 4 6 1 10 -4 10 -6 0 -11 5 -11 11 0 5 5 7 10 4 6 -4 10 7 10 25
0 25 4 31 16 26 8 -3 12 -2 9 3 -3 5 0 13 6 16 5 4 8 13 5 21 -3 9 1 14 12 14
14 0 15 2 2 10 -13 8 -13 11 -1 22 10 9 12 10 7 1 -5 -9 -2 -11 9 -7 12 5 13
10 4 20 -6 8 -16 11 -23 7 -7 -4 -6 -1 1 9 7 8 10 18 6 21 -3 4 -2 7 4 7 6 0
14 7 17 16 5 13 -1 15 -46 9 -84 -10 -548 -15 -601 -6 -39 7 -50 5 -54 -7z
m594 -527 c0 -8 -4 -12 -9 -9 -5 3 -6 10 -3 15 9 13 12 11 12 -6z m3 -155 c0
-5 -2 -10 -4 -10 -3 0 -8 5 -11 10 -3 6 -1 10 4 10 6 0 11 -4 11 -10z m953
-195 c-3 -9 -8 -14 -10 -11 -3 3 -2 9 2 15 9 16 15 13 8 -4z m237 -224 c0 -5
7 -12 16 -15 15 -6 15 -4 3 10 -13 16 -12 16 7 6 12 -6 23 -9 26 -7 3 3 5 -1
5 -7 1 -7 6 -35 11 -63 6 -27 13 -70 16 -95 4 -25 8 -61 11 -80 26 -191 40
-543 36 -845 -2 -68 -3 -72 -44 -117 -23 -27 -48 -48 -55 -48 -14 0 -254 225
-252 236 1 4 -4 11 -12 15 -11 7 -10 11 2 19 13 8 12 10 -5 11 l-20 0 20 9
c11 5 14 9 7 9 -7 1 -10 6 -7 11 4 6 2 17 -5 25 -8 10 -8 15 1 21 8 5 9 3 4
-6 -6 -9 -4 -11 4 -5 10 6 10 11 -2 23 -14 13 -14 18 1 41 16 25 16 26 -2 11
-18 -14 -19 -14 -8 7 9 15 9 24 1 28 -7 5 -4 13 7 26 16 17 16 19 0 25 -15 6
-15 8 1 21 10 8 13 12 7 9 -7 -3 -15 1 -18 10 -3 8 -2 13 3 10 5 -3 11 3 14
14 3 11 1 20 -4 20 -5 0 -9 -5 -9 -12 0 -6 -3 -8 -7 -5 -3 4 2 17 13 29 10 12
13 18 7 14 -7 -4 -13 -5 -13 -2 0 2 -3 11 -6 20 -3 9 -1 16 6 16 6 0 8 -6 4
-12 -4 -7 -3 -9 1 -5 17 15 14 39 -3 32 -13 -5 -12 -1 4 16 10 12 14 19 8 16
-7 -4 -15 0 -18 9 -3 8 -2 13 3 10 5 -3 12 1 15 10 3 8 2 13 -3 10 -18 -11
-21 27 -4 41 14 12 15 14 2 10 -9 -3 -16 1 -16 9 0 8 5 13 11 11 6 -3 12 6 12
19 1 13 -2 24 -6 24 -4 0 -11 7 -14 16 -3 8 -2 13 3 10 5 -3 12 1 15 10 3 8 2
13 -3 10 -18 -11 -21 27 -4 41 14 12 15 14 2 10 -9 -3 -16 1 -16 9 0 8 5 13
11 11 6 -3 12 6 12 19 1 13 -2 24 -6 24 -4 0 -11 7 -14 16 -3 8 -2 12 4 9 14
-9 12 8 -2 24 -11 12 -10 13 6 7 16 -6 17 -4 6 9 -20 24 -20 64 0 58 12 -4 12
-2 -1 9 -16 13 -15 16 8 36 29 26 19 30 -11 5 -16 -14 -18 -14 -8 -2 6 9 9 18
6 21 -3 4 8 5 25 4 16 -1 29 2 28 7 -1 5 4 12 12 15 8 3 11 0 7 -7 -4 -6 -3
-11 2 -11 5 0 14 10 21 23 6 12 10 14 7 5 -7 -23 25 -33 40 -13 9 12 14 13 20
4 5 -9 11 -7 21 6 9 14 13 15 13 4 0 -12 2 -12 10 1 5 8 10 10 10 4 0 -6 7
-11 15 -11 13 0 13 3 -2 19 -9 11 -11 18 -5 18 7 0 12 -4 12 -9z m-60 -16 c0
-8 -2 -15 -4 -15 -2 0 -6 7 -10 15 -3 8 -1 15 4 15 6 0 10 -7 10 -15z m-40
-15 c0 -5 -4 -10 -10 -10 -5 0 -10 5 -10 10 0 6 5 10 10 10 6 0 10 -4 10 -10z
m-800 -44 c0 -3 -4 -8 -10 -11 -5 -3 -10 -1 -10 4 0 6 5 11 10 11 6 0 10 -2
10 -4z m-2095 -166 c-3 -5 -12 -10 -18 -10 -7 0 -6 4 3 10 19 12 23 12 15 0z
m109 -266 c3 -8 2 -12 -4 -9 -6 3 -10 10 -10 16 0 14 7 11 14 -7z m1126 6 c0
-5 -2 -10 -4 -10 -3 0 -8 5 -11 10 -3 6 -1 10 4 10 6 0 11 -4 11 -10z m-104
-47 c-3 -19 -19 -21 -21 -2 -2 9 3 16 10 16 7 0 12 -6 11 -14z m-41 -5 c5 4 5
1 1 -6 -6 -10 -11 -10 -22 -1 -8 6 -14 14 -14 16 0 3 6 0 13 -6 8 -6 18 -7 22
-3z m722 -393 c0 -8 -4 -12 -9 -9 -4 3 -8 9 -8 15 0 5 4 9 8 9 5 0 9 -7 9 -15z
m7 -401 c3 -8 2 -12 -4 -9 -6 3 -10 10 -10 16 0 14 7 11 14 -7z m1544 -31 c-6
-7 -12 -13 -13 -13 -2 0 -5 6 -8 13 -3 7 3 13 14 13 13 0 15 -3 7 -13z m-3128
-197 c0 -2 -7 -7 -16 -10 -8 -3 -12 -2 -9 4 6 10 25 14 25 6z m260 -10 c0 -2
-7 -7 -16 -10 -8 -3 -12 -2 -9 4 6 10 25 14 25 6z m94 -4 c2 -4 -7 -8 -22 -9
-24 -2 -24 -1 -7 7 11 5 21 9 22 9 1 1 4 -3 7 -7z m316 -16 c0 -2 -7 -6 -15
-10 -8 -3 -15 -1 -15 4 0 6 7 10 15 10 8 0 15 -2 15 -4z m561 -189 c-10 -9
-11 -8 -5 6 3 10 9 15 12 12 3 -3 0 -11 -7 -18z m-44 7 c-3 -3 -12 -4 -19 -1
-8 3 -5 6 6 6 11 1 17 -2 13 -5z m173 -14 c0 -5 -2 -10 -4 -10 -3 0 -8 5 -11
10 -3 6 -1 10 4 10 6 0 11 -4 11 -10z m-360 -4 c0 -3 -4 -8 -10 -11 -5 -3 -10
-1 -10 4 0 6 5 11 10 11 6 0 10 -2 10 -4z m1580 -16 c0 -5 -2 -10 -4 -10 -3 0
-8 5 -11 10 -3 6 -1 10 4 10 6 0 11 -4 11 -10z m-170 -54 c0 -3 -4 -8 -10 -11
-5 -3 -10 -1 -10 4 0 6 5 11 10 11 6 0 10 -2 10 -4z m0 -220 c0 -3 -4 -8 -10
-11 -5 -3 -10 -1 -10 4 0 6 5 11 10 11 6 0 10 -2 10 -4z"/>
<path d="M2377 4873 c-11 -17 13 -28 26 -13 9 10 9 11 0 6 -6 -3 -13 -1 -15 6
-3 9 -6 9 -11 1z"/>
<path d="M2285 4640 c-3 -5 -1 -10 4 -10 6 0 11 5 11 10 0 6 -2 10 -4 10 -3 0
-8 -4 -11 -10z"/>
<path d="M4423 4571 c8 -41 -5 -79 -52 -152 -40 -61 -40 -63 -21 -76 11 -8 17
-20 14 -26 -4 -7 -4 -9 1 -5 13 12 47 -12 41 -29 -5 -13 -4 -13 7 -4 11 9 21
6 43 -11 16 -12 32 -26 35 -31 4 -5 12 -7 18 -3 7 5 8 1 4 -10 -5 -14 -3 -16
11 -11 10 4 15 3 11 -3 -3 -6 0 -10 7 -10 17 0 49 -36 40 -45 -4 -4 -2 -6 3
-5 24 5 37 -1 32 -14 -4 -11 -1 -13 10 -9 11 4 14 2 9 -5 -4 -7 -2 -12 3 -12
17 0 51 -33 51 -49 0 -8 3 -11 6 -8 9 9 45 -33 38 -44 -3 -5 2 -9 10 -9 9 0
16 -5 16 -10 0 -6 9 -21 21 -33 29 -31 69 -123 77 -176 9 -63 9 -325 -1 -386
-14 -89 -57 -258 -84 -330 -35 -94 -111 -245 -123 -245 -5 0 -15 -19 -22 -41
-6 -23 -19 -44 -28 -46 -9 -3 -24 -18 -34 -34 -22 -37 -481 -499 -606 -610
-52 -46 -103 -92 -115 -102 -11 -10 -71 -59 -132 -109 -62 -50 -113 -93 -113
-95 0 -7 97 48 118 66 20 18 51 37 97 60 17 8 33 19 36 24 3 5 9 1 12 -8 4 -9
3 -14 -2 -10 -5 3 -16 -2 -24 -10 -9 -8 -23 -15 -33 -15 -16 0 -11 -15 4 -15
4 0 13 -4 21 -9 10 -6 12 -5 7 2 -4 7 -2 12 4 12 6 0 8 5 4 13 -5 7 0 6 11 -3
11 -9 16 -10 11 -2 -6 11 4 17 26 13 4 0 4 7 1 16 -4 11 -3 14 5 9 7 -4 12 -2
12 4 0 6 4 9 9 5 5 -3 12 -1 16 5 4 6 12 7 18 3 7 -4 6 1 -2 10 -12 15 -12 17
4 11 13 -5 16 -4 11 4 -5 8 -2 10 8 6 9 -3 16 -1 16 5 0 6 -5 11 -12 11 -6 0
-8 3 -5 6 4 4 13 1 22 -6 17 -14 17 -14 19 22 1 15 6 31 10 35 5 4 6 3 2 -4
-3 -6 -2 -14 4 -18 6 -4 7 -11 4 -17 -5 -7 -2 -8 5 -4 7 5 10 14 7 21 -3 9 2
12 14 10 28 -5 46 21 23 34 -14 8 -11 9 17 5 19 -3 31 -2 25 3 -5 4 -11 15
-13 23 -3 12 -1 13 9 3 19 -19 34 -16 18 4 -10 12 -10 15 -1 9 7 -4 21 -4 33
-1 16 5 18 9 8 21 -10 13 -8 14 14 10 18 -3 24 -1 21 8 -3 7 3 19 12 27 16 12
17 12 10 -1 -4 -9 -2 -8 7 2 8 10 17 16 20 13 4 -3 5 -2 3 1 -2 3 5 15 16 26
12 12 16 24 11 32 -4 6 -1 4 8 -5 14 -16 16 -16 29 5 8 11 13 24 12 29 -1 4 5
7 13 7 8 0 24 14 37 30 16 22 24 27 30 18 6 -9 8 -8 6 4 -2 9 0 16 4 15 14 -4
58 48 53 61 -5 12 -3 13 10 2 13 -11 14 -10 9 5 -6 13 -4 16 5 10 10 -6 11 -2
6 16 -7 23 -7 24 9 4 15 -20 15 -20 16 2 0 16 5 21 19 18 15 -3 19 2 16 21 -2
21 0 22 14 12 9 -7 13 -9 9 -4 -4 5 0 15 8 23 8 8 11 20 7 26 -4 7 1 6 10 -2
15 -12 17 -12 11 3 -4 9 -1 16 6 16 7 0 10 7 6 16 -6 15 -4 15 11 3 15 -12 16
-12 10 4 -4 11 -1 17 9 17 9 0 14 6 11 13 -2 6 -11 11 -18 9 -9 -2 -7 4 5 17
21 23 35 29 17 7 -9 -10 -8 -15 4 -20 10 -4 15 1 15 14 0 11 6 20 13 20 8 0 7
4 -3 10 -13 8 -12 10 3 10 9 0 17 3 17 8 0 4 12 16 28 26 15 10 19 15 8 12
-15 -5 -17 -4 -8 7 7 8 9 16 6 20 -3 3 5 3 18 0 16 -3 19 -2 9 5 -11 8 -11 10
0 15 10 4 10 6 2 6 -7 1 -13 5 -13 10 0 5 10 8 23 7 20 -3 23 1 19 22 -4 20
-2 24 11 19 12 -4 14 -2 10 10 -4 11 -3 14 6 9 6 -4 11 -4 10 1 -5 27 3 53 16
53 8 0 15 7 15 16 0 9 5 12 13 8 8 -5 8 -2 -2 9 -10 12 -10 17 -1 17 6 0 10 6
7 13 -2 6 -10 11 -16 9 -7 -1 -10 2 -6 8 4 7 12 7 26 0 10 -6 19 -7 18 -3 -4
21 2 33 13 27 7 -5 8 -3 4 5 -5 7 0 22 10 34 16 18 14 18 -11 -3 -16 -14 -24
-17 -16 -8 7 9 10 22 6 28 -4 6 -3 10 2 9 19 -3 31 2 37 17 4 12 2 15 -9 11
-8 -4 -17 -2 -20 4 -4 5 -1 8 7 7 7 -2 12 3 10 11 -3 12 0 12 12 2 11 -9 16
-9 22 0 4 8 3 9 -4 5 -7 -4 -12 -1 -12 8 0 9 5 16 11 16 6 0 9 6 6 13 -2 6
-11 11 -18 9 -9 -2 -7 4 5 17 20 22 32 28 21 12 -3 -5 0 -13 7 -17 7 -4 10 -4
6 1 -4 4 -3 14 3 21 7 8 6 14 -2 20 -8 5 -10 3 -4 -7 5 -8 4 -10 0 -6 -18 16
-13 36 7 32 20 -4 20 -4 3 15 -10 11 -15 23 -12 27 4 3 7 1 7 -5 0 -7 4 -12 9
-12 10 0 12 50 2 65 -3 6 1 3 10 -7 16 -17 17 -16 15 6 0 13 -4 22 -9 19 -9
-5 -4 34 6 43 12 12 8 26 -5 19 -7 -4 -4 1 7 10 11 9 19 25 17 37 -2 11 0 18
6 15 5 -4 9 0 9 8 0 8 -4 12 -8 9 -4 -2 -10 0 -13 5 -3 5 4 11 15 14 12 3 18
10 14 16 -3 6 -10 9 -15 6 -5 -3 -11 -1 -15 5 -3 5 0 10 8 10 8 0 18 7 21 16
3 8 2 13 -3 10 -5 -3 -12 1 -15 10 -3 8 -2 12 3 9 5 -3 12 -1 15 4 3 5 -1 11
-9 15 -8 3 -12 12 -9 21 3 8 9 13 13 10 4 -2 8 2 8 10 0 8 -3 13 -6 11 -3 -2
-7 9 -8 25 -1 16 1 28 6 25 4 -3 8 1 8 9 0 8 -4 12 -8 10 -4 -3 -10 2 -13 11
-3 8 -2 12 4 9 12 -8 13 5 0 25 -5 9 -5 19 2 27 8 11 7 12 -8 6 -17 -6 -18 -5
-4 12 9 11 10 16 3 11 -9 -5 -13 2 -13 23 0 17 -4 31 -10 31 -5 0 -10 5 -10
11 0 5 5 7 11 3 6 -3 4 5 -5 18 -9 14 -13 28 -9 31 3 4 2 7 -4 7 -6 0 -14 7
-17 16 -4 10 -2 13 7 8 9 -6 9 -4 -1 8 -22 28 -61 106 -55 112 4 3 2 6 -3 6
-6 0 -29 29 -52 64 -70 105 -215 236 -411 369 -29 21 -62 37 -73 37 -17 0 -20
-5 -15 -29z m651 -1097 c3 -8 2 -12 -4 -9 -6 3 -10 10 -10 16 0 14 7 11 14 -7z
m-144 -454 c0 -5 -2 -10 -4 -10 -3 0 -8 5 -11 10 -3 6 -1 10 4 10 6 0 11 -4
11 -10z m-43 -75 c0 -8 -4 -15 -9 -15 -10 0 -11 14 -1 23 9 10 10 9 10 -8z
m-160 -230 c0 -8 -4 -12 -9 -9 -5 3 -6 10 -3 15 9 13 12 11 12 -6z m-104 -130
c-3 -9 -8 -14 -10 -11 -3 3 -2 9 2 15 9 16 15 13 8 -4z m-23 -45 c0 -5 -5 -10
-11 -10 -5 0 -7 5 -4 10 3 6 8 10 11 10 2 0 4 -4 4 -10z m-35 -40 c3 -5 1 -10
-4 -10 -6 0 -11 5 -11 10 0 6 2 10 4 10 3 0 8 -4 11 -10z m-85 -95 c0 -1 -10
-10 -22 -21 -13 -10 -20 -15 -16 -10 4 5 4 14 -2 21 -6 8 -2 11 15 11 14 0 25
-1 25 -1z m-115 -64 c-3 -5 -1 -12 5 -16 13 -8 3 -25 -13 -25 -8 0 -8 3 2 9 9
6 10 11 2 15 -10 7 -6 26 5 26 3 0 3 -4 -1 -9z m-30 -63 c3 -3 -3 -11 -12 -19
-10 -7 -15 -9 -11 -5 4 5 3 15 -3 22 -7 9 -6 12 5 10 9 -1 18 -5 21 -8z m-105
-72 c0 -2 -7 -7 -16 -10 -8 -3 -12 -2 -9 4 6 10 25 14 25 6z m-140 -150 c0 -3
-4 -8 -10 -11 -5 -3 -10 -1 -10 4 0 6 5 11 10 11 6 0 10 -2 10 -4z m-160 -76
c0 -5 -5 -10 -11 -10 -5 0 -7 5 -4 10 3 6 8 10 11 10 2 0 4 -4 4 -10z m-26
-32 c-3 -5 -10 -6 -15 -3 -5 4 -9 1 -9 -6 0 -7 -3 -10 -6 -6 -9 9 3 24 20 24
8 0 13 -4 10 -9z"/>
<path d="M4223 4527 c0 -8 6 -14 14 -14 9 0 10 4 2 14 -6 7 -12 13 -14 13 -1
0 -2 -6 -2 -13z"/>
<path d="M3486 4297 c3 -10 9 -15 12 -12 3 3 0 11 -7 18 -10 9 -11 8 -5 -6z"/>
<path d="M3510 4291 c0 -5 5 -13 10 -16 6 -3 10 -2 10 4 0 5 -4 13 -10 16 -5
3 -10 2 -10 -4z"/>
<path d="M4430 4266 c0 -2 7 -7 16 -10 8 -3 12 -2 9 4 -6 10 -25 14 -25 6z"/>
<path d="M3715 4190 c3 -5 8 -10 11 -10 2 0 4 5 4 10 0 6 -5 10 -11 10 -5 0
-7 -4 -4 -10z"/>
<path d="M3890 4164 c0 -8 5 -12 10 -9 6 4 8 11 5 16 -9 14 -15 11 -15 -7z"/>
<path d="M1365 3860 c-3 -5 -1 -10 4 -10 6 0 11 5 11 10 0 6 -2 10 -4 10 -3 0
-8 -4 -11 -10z"/>
<path d="M650 3659 c0 -5 -4 -8 -9 -4 -17 10 -21 -12 -6 -25 12 -10 15 -10 15
0 0 7 6 10 13 7 8 -3 14 3 14 14 1 11 -5 19 -13 19 -8 0 -14 -5 -14 -11z"/>
<path d="M1386 3107 c3 -10 9 -15 12 -12 3 3 0 11 -7 18 -10 9 -11 8 -5 -6z"/>
<path d="M498 2668 c-63 -49 -83 -70 -153 -163 -144 -190 -264 -444 -311 -657
-23 -105 -25 -315 -4 -398 21 -81 67 -180 83 -180 4 0 5 -4 2 -10 -3 -5 -3
-10 2 -10 4 0 22 -23 38 -50 17 -27 37 -50 45 -50 13 0 13 -1 0 -10 -13 -8
-12 -10 2 -10 23 0 59 -31 51 -43 -4 -6 -1 -7 7 -2 8 5 20 -1 32 -16 11 -13
17 -18 13 -11 -6 11 -3 11 13 1 12 -7 18 -17 16 -21 -3 -4 4 -8 15 -8 11 0 22
-9 26 -20 4 -11 11 -17 17 -14 6 4 23 -7 38 -24 15 -17 30 -29 33 -26 3 3 15
0 26 -8 12 -8 18 -18 14 -21 -3 -4 -1 -7 5 -7 5 0 13 6 15 13 3 6 6 1 6 -12 1
-23 2 -23 14 -7 12 17 14 17 28 -1 13 -16 13 -17 -3 -4 -12 9 -18 10 -18 2 0
-11 3 -12 38 -15 9 -1 23 -5 31 -10 8 -5 29 -9 48 -8 19 1 31 -3 28 -8 -3 -5
0 -12 6 -16 7 -4 10 -3 6 2 -3 5 6 15 21 22 19 9 23 9 14 0 -18 -18 -15 -27 8
-21 11 3 17 10 13 16 -3 6 -1 7 5 3 6 -4 9 -12 6 -20 -3 -7 2 -13 10 -13 9 0
12 6 8 16 -5 14 -3 14 11 2 9 -7 15 -17 12 -20 -2 -4 2 -8 10 -8 8 0 12 4 9 8
-2 4 1 11 7 15 8 4 9 3 5 -4 -4 -7 -2 -12 4 -12 6 0 8 -6 4 -12 -6 -10 -4 -10
7 0 7 6 18 12 24 12 5 0 5 -4 -2 -8 -9 -5 -6 -11 9 -21 18 -11 20 -11 15 2 -4
12 -1 12 18 3 16 -7 20 -13 12 -18 -9 -6 -9 -8 0 -8 7 0 17 8 22 18 10 16 10
15 11 -3 1 -18 1 -19 11 -2 11 19 29 23 29 6 0 -5 -4 -8 -8 -5 -5 3 -9 -2 -9
-10 0 -10 4 -11 11 -4 14 14 53 13 59 -2 3 -7 6 -2 6 12 l1 24 15 -21 c10 -14
22 -20 31 -16 14 5 12 8 -7 19 -30 16 -19 18 15 3 14 -7 23 -17 19 -23 -3 -6
-3 -8 2 -4 4 4 15 2 23 -5 13 -10 14 -9 8 2 -6 10 -4 12 10 7 11 -3 25 -2 33
3 18 12 43 3 35 -13 -3 -6 4 0 15 14 l20 25 -4 -25 c-4 -24 -4 -24 10 -6 9 12
15 15 15 7 0 -8 8 -4 18 9 l18 22 1 -23 c2 -19 0 -20 -7 -9 -6 9 -10 10 -10 3
0 -20 18 -24 29 -6 6 10 11 13 11 8 0 -6 11 -11 24 -11 14 0 22 4 20 8 -3 4 0
8 5 8 6 0 11 -6 11 -12 0 -9 4 -8 10 2 6 10 10 11 10 3 0 -7 5 -13 11 -13 5 0
8 4 5 9 -3 4 1 17 10 27 14 18 15 18 5 -3 -6 -12 -7 -24 -2 -27 5 -3 11 3 14
15 5 17 8 19 26 8 11 -7 17 -18 13 -24 -3 -5 1 -4 10 3 13 10 17 10 21 0 3 -8
6 -5 6 6 1 16 4 17 13 8 15 -15 32 -16 22 -1 -4 7 1 7 16 -1 15 -8 20 -8 16
-1 -4 6 -2 11 3 11 6 0 11 -5 11 -11 0 -5 5 -7 12 -3 16 10 -20 34 -40 27 -10
-4 -14 -3 -10 1 13 16 44 12 56 -6 12 -16 16 -17 30 -6 10 8 13 9 9 1 -4 -6
-2 -15 4 -19 8 -5 9 -3 4 6 -6 10 -3 12 13 8 12 -4 20 -2 16 3 -3 5 0 9 6 9 6
0 9 4 6 9 -3 5 1 14 9 21 10 9 15 9 15 1 0 -6 -4 -11 -8 -11 -5 0 -9 -7 -9
-15 0 -8 4 -15 8 -15 7 0 23 30 21 41 -2 10 91 20 100 11 7 -7 -11 -11 -65
-13 -9 0 -15 -5 -11 -10 3 -5 0 -8 -7 -7 -6 2 -13 -2 -15 -7 -2 -6 4 -11 15
-11 11 0 17 5 14 10 -4 5 1 7 10 3 9 -3 19 -2 22 3 4 6 11 10 16 10 6 0 7 -5
4 -10 -3 -6 -1 -10 4 -10 6 0 11 4 11 9 0 6 9 8 20 6 12 -2 23 2 27 11 4 12 8
12 19 -3 13 -17 14 -17 7 1 -4 11 -2 17 3 13 6 -3 16 -2 23 2 9 6 10 11 2 15
-6 4 -11 3 -11 -2 0 -5 -13 -8 -29 -7 -23 2 -28 -1 -24 -14 5 -14 4 -14 -12 1
-23 21 -19 25 25 33 66 11 110 26 110 37 0 6 -9 8 -22 4 -36 -10 -146 -25
-228 -31 -41 -3 -100 -8 -130 -12 -100 -12 -459 -4 -540 12 -55 11 -67 14
-128 29 -103 27 -270 85 -325 112 -121 61 -261 173 -328 264 -44 59 -90 150
-83 162 4 7 3 8 -4 4 -7 -4 -13 0 -14 11 0 10 -2 23 -2 29 -1 6 -6 18 -12 25
-6 8 -10 24 -9 37 1 13 -3 26 -8 29 -6 4 -7 1 -2 -7 5 -8 4 -11 -3 -6 -7 4 -8
17 -2 35 7 25 6 29 -8 24 -14 -5 -13 -2 3 17 11 13 15 20 9 17 -7 -4 -14 0
-17 7 -3 8 -1 17 6 20 7 2 3 5 -8 6 l-20 1 20 9 c11 5 14 9 7 9 -10 1 -10 6
-1 23 10 18 9 20 -7 14 -18 -6 -18 -5 0 9 20 15 20 15 0 16 -18 0 -18 1 1 9
14 6 15 9 5 10 -12 0 -11 3 3 14 18 14 17 15 -3 21 l-20 6 21 18 c17 14 19 20
9 26 -8 5 -11 4 -6 -3 3 -6 2 -13 -3 -16 -10 -7 -9 20 2 30 4 4 7 16 7 26 0
10 5 18 12 18 6 0 3 7 -8 15 -10 9 -13 14 -5 13 7 -2 16 3 19 11 2 8 0 11 -5
8 -5 -3 -10 0 -10 8 0 8 5 11 10 8 6 -4 8 0 4 10 -4 12 -1 17 11 18 10 0 12 3
5 6 -9 3 -9 10 -3 24 6 10 15 28 20 39 11 23 1 26 -20 8 -8 -7 -6 -3 4 9 10
12 16 29 13 36 -4 11 0 13 16 10 18 -4 19 -3 7 6 -12 8 -12 11 -1 11 8 0 11 6
7 16 -5 12 -1 14 17 9 15 -4 18 -3 9 3 -16 11 -14 23 6 38 9 7 12 16 7 24 -5
8 -4 11 3 6 15 -9 54 48 41 61 -8 8 -7 13 2 18 8 6 10 4 4 -4 -5 -10 -2 -9 13
0 12 7 18 17 15 22 -3 4 3 15 13 23 17 14 17 15 2 10 -10 -3 -20 -1 -23 5 -4
5 -3 8 2 7 32 -8 67 28 68 72 0 8 8 14 17 14 10 -1 14 4 11 12 -3 8 -10 11
-16 7 -6 -3 -7 -1 -3 6 6 9 11 9 21 1 11 -9 13 -6 11 15 -3 20 -1 23 10 14 17
-14 18 2 2 20 -11 11 -10 12 1 6 9 -5 20 0 33 16 11 13 16 17 12 9 -5 -11 -4
-12 5 -4 16 15 24 64 11 64 -6 0 -8 -4 -5 -10 3 -5 1 -10 -5 -10 -6 0 -8 -6
-4 -12 5 -10 4 -10 -5 -2 -10 9 -10 17 -2 32 29 54 8 54 -61 0z m47 -49 c-4
-5 -12 -9 -18 -8 -9 0 -8 2 1 6 6 2 9 10 6 15 -4 7 -2 8 5 4 6 -4 9 -12 6 -17z
m-98 -149 c1 -11 -2 -20 -7 -20 -6 0 -7 17 -1 38 3 8 7 -1 8 -18z m-22 -30 c3
-5 1 -10 -4 -10 -6 0 -11 5 -11 10 0 6 2 10 4 10 3 0 8 -4 11 -10z m-35 -60
c0 -5 -4 -10 -10 -10 -5 0 -10 5 -10 10 0 6 5 10 10 10 6 0 10 -4 10 -10z
m-20 -54 c0 -3 -4 -8 -10 -11 -5 -3 -10 -1 -10 4 0 6 5 11 10 11 6 0 10 -2 10
-4z m-25 -34 c-3 -3 -11 0 -18 7 -9 10 -8 11 6 5 10 -3 15 -9 12 -12z m325
-1406 c0 -3 -4 -8 -10 -11 -5 -3 -10 -1 -10 4 0 6 5 11 10 11 6 0 10 -2 10 -4z
m1064 -60 c-3 -9 -12 -12 -22 -9 -15 6 -9 11 25 22 1 1 0 -5 -3 -13z m-44 -6
c0 -5 -2 -10 -4 -10 -3 0 -8 5 -11 10 -3 6 -1 10 4 10 6 0 11 -4 11 -10z
m-140 -10 c0 -5 -5 -10 -11 -10 -5 0 -7 5 -4 10 3 6 8 10 11 10 2 0 4 -4 4
-10z m-375 -18 c-3 -3 -11 0 -18 7 -9 10 -8 11 6 5 10 -3 15 -9 12 -12z m35
-2 c0 -5 -5 -10 -11 -10 -5 0 -7 5 -4 10 3 6 8 10 11 10 2 0 4 -4 4 -10z"/>
<path d="M2295 2581 c-3 -5 -2 -12 3 -15 5 -3 9 1 9 9 0 17 -3 19 -12 6z"/>
<path d="M1240 2194 c0 -2 9 -8 20 -14 15 -8 18 -8 14 3 -4 11 -34 21 -34 11z"/>
<path d="M3779 1874 c-1 -5 -1 -13 0 -18 1 -5 -5 -6 -14 -2 -9 3 -13 2 -10 -4
3 -5 -4 -14 -15 -20 -11 -6 -20 -8 -20 -4 0 4 -9 -1 -20 -11 -11 -10 -17 -21
-15 -26 3 -4 1 -10 -5 -14 -5 -3 -10 -1 -10 5 0 6 -5 8 -11 5 -13 -9 -7 -15
20 -20 12 -2 19 0 16 6 -4 5 0 9 7 9 10 0 10 2 -1 9 -16 11 -3 19 26 16 12 -1
20 2 17 7 -3 4 6 12 20 18 14 5 26 14 26 20 0 6 4 9 9 5 5 -3 13 0 17 7 4 7 4
10 -1 6 -4 -4 -14 -3 -22 3 -7 6 -14 8 -14 3z"/>
<path d="M3113 1285 c0 -8 4 -12 9 -9 5 3 6 10 3 15 -9 13 -12 11 -12 -6z"/>
<path d="M2941 1223 c1 -4 0 -10 -1 -13 -6 -15 -6 -51 0 -55 4 -3 6 6 6 18 -1
12 2 27 6 34 5 6 4 14 -2 18 -6 4 -10 3 -9 -2z"/>
<path d="M470 930 c0 -5 5 -10 11 -10 5 0 7 5 4 10 -3 6 -8 10 -11 10 -2 0 -4
-4 -4 -10z"/>
<path d="M2013 863 c0 -14 32 -12 47 3 6 6 0 10 -18 9 -16 0 -29 -5 -29 -12z"/>
<path d="M1500 791 c0 -5 5 -13 10 -16 6 -3 10 -2 10 4 0 5 -4 13 -10 16 -5 3
-10 2 -10 -4z"/>
</g>
</svg>
